<svg height="511pt" viewBox="0 -46 511.99989 511" width="511pt" xmlns="http://www.w3.org/2000/svg"><path d="m60.273438 318.582031-14.074219 20.101563c-.925781 1.320312-1.625 2.78125-2.085938 4.332031l-13.523437 45.46875c-1.84375 6.183594.476562 12.855469 5.769531 16.558594 5.292969 3.707031 12.351563 3.609375 17.535156-.238281l37.925781-28.132813c-18.410156-13.03125-30.558593-34.105469-31.546874-58.089844zm0 0"/><path d="m497 180.515625h-45.003906v224.996094c0 11.152343 11.734375 18.40625 21.710937 13.417969l32.226563-23.902344c3.816406-2.828125 6.066406-7.300782 6.066406-12.046875v-187.464844c0-8.285156-6.714844-15-15-15zm0 0"/><path d="m299.410156 3.21875c-6.792968-4.757812-16.136718-3.109375-20.894531 3.683594l-25.8125 36.863281 49.152344 34.417969 25.8125-36.863282c4.757812-6.792968 3.109375-16.136718-3.683594-20.894531zm0 0"/><path d="m112.195312 244.433594c7.226563-2.324219 14.785157-3.917969 22.773438-3.917969h53.21875l96.460938-137.757813-49.152344-34.417968zm0 0"/><path d="m107.445312 118.078125c-8.292968 3.601563-15.222656 9.519531-20.070312 17.152344l-82.667969 130.164062c-10.359375 20.730469-3.007812 45.558594 16.074219 57.816407.347656-.546876.460938-1.191407.832031-1.722657l161.261719-230.3125c-6.019531-.363281-12.171875.019531-18.371094 2.113281zm0 0"/><path d="m119.96875 389.011719v9.019531c0 12.425781 10.074219 22.5 22.503906 22.5 12.425782 0 22.5-10.074219 22.5-22.5v-7.5h-30.003906c-5.132812 0-10.148438-.53125-15-1.519531zm0 0"/><path d="m194.976562 390.53125v7.5c0 12.425781 10.074219 22.5 22.5 22.5 11.007813 0 19.746094-8.058594 21.695313-18.503906-4.886719-2.023438-9.851563-3.851563-14.589844-6.195313l-10.402343-5.304687h-19.203126zm0 0"/><path d="m421.992188 180.515625h-27.53125l-95.324219-46.152344-73.398438 104.832031c18.25-2.835937 35.503907-11.148437 48.636719-24.285156 5.859375-5.859375 15.355469-5.859375 21.214844 0s5.859375 15.355469 0 21.214844c-21.859375 21.855469-52.125 34.398438-83.035156 34.398438-16.140626 0-82.199219 0-77.582032 0-24.03125 0-45.003906 19.515624-45.003906 45 0 24.90625 20.101562 45.003906 45.003906 45.003906h86.40625c7.203125 2.816406 47.28125 30.003906 108.609375 30.003906 31.039063 0 64.03125-7.253906 92.003907-20.707031zm0 0"/></svg>